<?xml version="1.0"?>
<svg xmlns="http://www.w3.org/2000/svg" viewBox="0 0 64 64" width="512" height="512"><g id="Outline"><g><path d="M25,21.47v2.71A3,3,0,0,0,26,30H38a1,1,0,0,1,0,2H25a1,1,0,0,0,0,2h.08A7,7,0,0,0,39,33.83,3,3,0,0,0,40.22,29,3,3,0,0,0,41,27a3,3,0,0,0-3-3H35V17.41l3.71-3.7a1,1,0,0,0,0-1.42l-3-3a1,1,0,0,0-1.26-.12L32,10.8,29.55,9.17a1,1,0,0,0-1.26.12l-3,3a1,1,0,0,0,0,1.42L29,17.41V24H27V21a1,1,0,0,0-.4-.8,9,9,0,1,1,10.8,0,1,1,0,0,0,1.2,1.6A11,11,0,1,0,25,21.47ZM32,38a5,5,0,0,1-4.9-4h9.8A5,5,0,0,1,32,38Zm7-11a1,1,0,0,1-1,1H26a1,1,0,0,1,0-2H38A1,1,0,0,1,39,27ZM30.71,16.29,27.41,13l1.72-1.71,2.32,1.54a1,1,0,0,0,1.1,0l2.32-1.54L36.59,13l-3.3,3.29A1,1,0,0,0,33,17v7H31V17A1,1,0,0,0,30.71,16.29Z"/><path d="M54,46H10a1,1,0,0,1-1-1V37a1,1,0,0,0-2,0v8a3,3,0,0,0,3,3H22.13l-2.67,4H17a1,1,0,0,0,0,2H47a1,1,0,0,1,1,1v1H15a1,1,0,0,0,0,2H49a1,1,0,0,0,1-1V55a3,3,0,0,0-3-3H44.54l-2.67-4H54a1,1,0,0,0,0-2ZM42.13,52H21.87l2.67-4H39.46Z"/><path d="M10,18h8.85a1,1,0,0,0,0-2H10a1,1,0,0,0,0,2Z"/><path d="M45.15,18H54a1,1,0,0,1,1,1v6a1,1,0,0,0,2,0V19a3,3,0,0,0-3-3H45.15a1,1,0,0,0,0,2Z"/><path d="M59,28H49a3,3,0,0,0-3,3V41a3,3,0,0,0,3,3H59a3,3,0,0,0,3-3V31A3,3,0,0,0,59,28Zm1,13a1,1,0,0,1-1,1H49a1,1,0,0,1-1-1V31a1,1,0,0,1,1-1H59a1,1,0,0,1,1,1Z"/><path d="M57.45,35.11l-6-3A1,1,0,0,0,50,33v6a1,1,0,0,0,.47.85A1,1,0,0,0,51,40a1,1,0,0,0,.45-.11l6-3a1,1,0,0,0,0-1.78ZM52,37.38V34.62L54.76,36Z"/><path d="M51,24H46a1,1,0,0,0,0,2h5a1,1,0,0,0,0-2Z"/><path d="M51,20H46a1,1,0,0,0,0,2h5a1,1,0,0,0,0-2Z"/><circle cx="39" cy="42" r="1"/><circle cx="43" cy="42" r="1"/><path d="M17,34a1,1,0,0,0,1-1V21a1,1,0,0,0-1-1H3a1,1,0,0,0-1,1V33a1,1,0,0,0,1,1Zm-4.88-3L13,29.24,14.38,32H12.62ZM16,22v8.76l-2.11-4.21a1,1,0,0,0-1.78,0L11,28.76,8.89,24.55a1,1,0,0,0-1.78,0L4,30.76V22ZM5.62,32,8,27.24,10.38,32Z"/><path d="M19,36H13a1,1,0,0,0,0,2h6a1,1,0,0,0,0-2Z"/><path d="M19,40H13a1,1,0,0,0,0,2h6a1,1,0,0,0,0-2Z"/></g></g></svg>
