<svg id="Layer_1" data-name="Layer 1" xmlns="http://www.w3.org/2000/svg" xmlns:xlink="http://www.w3.org/1999/xlink" viewBox="0 0 245 81.69"><defs><style>.cls-1{fill:url(#linear-gradient);}.cls-2{fill:url(#linear-gradient-2);}.cls-3{fill:url(#linear-gradient-3);}.cls-4{fill:url(#linear-gradient-4);}.cls-5{fill:url(#linear-gradient-5);}.cls-6{fill:url(#linear-gradient-6);}</style><linearGradient id="linear-gradient" x1="-15.11" y1="48.25" x2="299.87" y2="-43.24" gradientUnits="userSpaceOnUse"><stop offset="0" stop-color="#9c9b9b"/><stop offset="1" stop-color="#575756"/></linearGradient><linearGradient id="linear-gradient-2" x1="347.7" y1="505.69" x2="662.68" y2="414.2" xlink:href="#linear-gradient"/><linearGradient id="linear-gradient-3" x1="346.92" y1="503" x2="661.9" y2="411.51" xlink:href="#linear-gradient"/><linearGradient id="linear-gradient-4" x1="-4.92" y1="83.34" x2="310.06" y2="-8.15" xlink:href="#linear-gradient"/><linearGradient id="linear-gradient-5" x1="357.89" y1="540.79" x2="672.88" y2="449.29" xlink:href="#linear-gradient"/><linearGradient id="linear-gradient-6" x1="357.11" y1="538.1" x2="672.09" y2="446.6" xlink:href="#linear-gradient"/></defs><title>1010</title><polygon class="cls-1" points="15.14 0.99 6.17 0.99 0 0.99 0 2.06 6.17 2.06 6.17 80.7 20.75 80.7 20.75 0.99 15.14 0.99"/><path class="cls-2" d="M434.49,439.15v.26c8.36,1.42,21.79,8.67,21.79,40.59s-13.44,39.17-21.79,40.58v.26c20.8-1.29,37-19.13,37-40.84S455.29,440.45,434.49,439.15Z" transform="translate(-357.5 -439.15)"/><path class="cls-3" d="M427.77,520.85v-.26C420.86,519.36,406,512.9,406,480s14.88-39.36,21.8-40.59v-.26c-20.8,1.3-37,19.13-37,40.85S407,519.55,427.77,520.85Z" transform="translate(-357.5 -439.15)"/><polygon class="cls-4" points="146.14 0.99 137.18 0.99 131.01 0.99 131.01 2.06 137.18 2.06 137.18 80.7 151.75 80.7 151.75 0.99 146.14 0.99"/><path class="cls-5" d="M565.49,439.15v.26c8.35,1.42,21.8,8.67,21.8,40.59s-13.44,39.17-21.8,40.58v.26c20.8-1.29,37-19.13,37-40.84S586.29,440.45,565.49,439.15Z" transform="translate(-357.5 -439.15)"/><path class="cls-6" d="M558.78,520.85v-.26C551.87,519.36,537,512.9,537,480s14.89-39.36,21.8-40.59v-.26c-20.8,1.3-37,19.13-37,40.85S538,519.55,558.78,520.85Z" transform="translate(-357.5 -439.15)"/></svg>