<?xml version="1.0" standalone="no"?><!DOCTYPE svg PUBLIC "-//W3C//DTD SVG 1.1//EN" "http://www.w3.org/Graphics/SVG/1.1/DTD/svg11.dtd"><svg class="icon" height="512" viewBox="0 0 1024 1024" version="1.1" xmlns="http://www.w3.org/2000/svg"><path d="M298.666667 512C298.666667 629.76 394.24 725.333333 512 725.333333 629.76 725.333333 725.333333 629.76 725.333333 512 725.333333 394.24 629.76 298.666667 512 298.666667 463.786667 298.666667 419.84 314.453333 384 341.333333L384 104.96C424.533333 92.16 467.2 85.333333 512 85.333333 747.52 85.333333 938.666667 276.48 938.666667 512 938.666667 747.52 747.52 938.666667 512 938.666667 276.48 938.666667 85.333333 747.52 85.333333 512 85.333333 354.133333 170.666667 216.32 298.666667 142.506667L298.666667 512M618.666667 512C618.666667 527.786667 610.133333 541.013333 597.333333 548.693333L516.693333 609.706667C509.44 615.253333 500.48 618.666667 490.666667 618.666667 467.2 618.666667 448 599.466667 448 576L448 448C448 424.533333 467.2 405.333333 490.666667 405.333333 500.48 405.333333 509.44 408.746667 516.693333 414.293333L597.333333 475.306667C610.133333 482.986667 618.666667 496.213333 618.666667 512Z" /></svg>